<svg width="24" height="24" viewBox="0 0 24 24" fill="none" xmlns="http://www.w3.org/2000/svg">
<g id="material-symbols:surfing">
<path id="Vector" d="M2 23V21H3C3.53333 21 4.05 20.9167 4.55 20.75C5.05 20.5833 5.53333 20.3333 6 20C6.46667 20.3333 6.95 20.5793 7.45 20.738C7.95 20.8967 8.46667 20.9757 9 20.975C9.53333 20.9743 10.0543 20.895 10.563 20.737C11.0717 20.579 11.5507 20.3333 12 20C12.4667 20.3333 12.95 20.5793 13.45 20.738C13.95 20.8967 14.4667 20.9757 15 20.975C15.5333 20.9743 16.0543 20.895 16.563 20.737C17.0717 20.579 17.5507 20.3333 18 20C18.45 20.3333 18.9293 20.5833 19.438 20.75C19.9467 20.9167 20.4673 21 21 21H22V23H21C20.4833 23 19.975 22.9377 19.475 22.813C18.975 22.6883 18.4833 22.5007 18 22.25C17.5167 22.5 17.025 22.6877 16.525 22.813C16.025 22.9383 15.5167 23.0007 15 23C14.4833 22.9993 13.975 22.937 13.475 22.813C12.975 22.689 12.4833 22.5013 12 22.25C11.5167 22.5 11.025 22.6877 10.525 22.813C10.025 22.9383 9.51667 23.0007 9 23C8.48333 22.9993 7.975 22.937 7.475 22.813C6.975 22.689 6.48333 22.5013 6 22.25C5.51667 22.5 5.025 22.6877 4.525 22.813C4.025 22.9383 3.51667 23.0007 3 23H2ZM8.5 4.00001L14.05 5.02501C14.2833 5.05834 14.5083 5.15001 14.725 5.30001C14.9417 5.45001 15.125 5.65834 15.275 5.92501L16.15 7.47501C16.5833 8.22501 17.1833 8.83334 17.95 9.30001C18.7167 9.76667 19.5667 10 20.5 10V12C19.2 12 18.0167 11.675 16.95 11.025C15.8833 10.375 15.0417 9.52501 14.425 8.47501L12.175 10L16 13V16.85C16.2667 17.0333 16.525 17.225 16.775 17.425C17.025 17.625 17.2667 17.8167 17.5 18C17.15 18.3 16.7667 18.5417 16.35 18.725C15.9333 18.9083 15.4833 19 15 19C14.4 19 13.8417 18.8583 13.325 18.575C12.8083 18.2917 12.3667 17.9333 12 17.5C11.6333 17.9333 11.1917 18.2917 10.675 18.575C10.1583 18.8583 9.6 19 9 19C8.83333 19 8.67067 18.9873 8.512 18.962C8.35333 18.9367 8.19933 18.8993 8.05 18.85C6.61667 17.8667 5.41667 16.875 4.45 15.875C3.48333 14.875 3 14.0083 3 13.275C3 12.7583 3.2 12.4167 3.6 12.25C4 12.0833 4.41667 12 4.85 12C5.33333 12 5.89167 12.071 6.525 12.213C7.15833 12.355 7.83333 12.559 8.55 12.825L8.025 9.72501C7.95833 9.39167 7.996 9.06267 8.138 8.73801C8.28 8.41334 8.50067 8.15067 8.8 7.95001L10.95 6.50001C10.9 6.50001 10.7793 6.47934 10.588 6.43801C10.3967 6.39667 10.184 6.35501 9.95 6.31301C9.716 6.27101 9.50367 6.22934 9.313 6.18801C9.12233 6.14667 9.00133 6.12567 8.95 6.12501L6.125 8.05001L5 6.40001L8.5 4.00001ZM10.3 11.1L10.75 13.75C11.2 13.9667 11.7583 14.2543 12.425 14.613C13.0917 14.9717 13.6167 15.2673 14 15.5V14L10.3 11.1ZM17 5.50001C16.45 5.50001 15.9793 5.30434 15.588 4.91301C15.1967 4.52167 15.0007 4.05067 15 3.50001C14.9993 2.94934 15.1953 2.47867 15.588 2.08801C15.9807 1.69734 16.4513 1.50134 17 1.50001C17.5487 1.49867 18.0197 1.69467 18.413 2.08801C18.8063 2.48134 19.002 2.95201 19 3.50001C18.998 4.04801 18.8023 4.51901 18.413 4.91301C18.0237 5.30701 17.5527 5.50267 17 5.50001Z" fill="black"/>
</g>
</svg>
