<svg width="37" height="37" viewBox="0 0 37 37" fill="none" xmlns="http://www.w3.org/2000/svg">
<g id="entypo:bar-graph">
<path id="Vector" d="M31.45 1.84998H27.75C27.2594 1.84998 26.7888 2.04489 26.4419 2.39183C26.0949 2.73877 25.9 3.20933 25.9 3.69998V35.1352H33.3V3.69998C33.3 3.20933 33.1051 2.73877 32.7582 2.39183C32.4112 2.04489 31.9407 1.84998 31.45 1.84998ZM20.35 12.95H16.65C16.1594 12.95 15.6888 13.1449 15.3419 13.4918C14.9949 13.8388 14.8 14.3093 14.8 14.8V35.1352H22.2V14.8C22.2 14.3093 22.0051 13.8388 21.6582 13.4918C21.3112 13.1449 20.8407 12.95 20.35 12.95ZM9.25001 24.05H5.55001C5.05936 24.05 4.58881 24.2449 4.24186 24.5918C3.89492 24.9388 3.70001 25.4093 3.70001 25.9V35.1352H11.1V25.9C11.1 25.4093 10.9051 24.9388 10.5582 24.5918C10.2112 24.2449 9.74066 24.05 9.25001 24.05Z" fill="black"/>
</g>
</svg>
