<svg width="74" height="71" viewBox="0 0 74 71" fill="none" xmlns="http://www.w3.org/2000/svg">
<path id="Vector" d="M73.125 33.7502C73.125 43.4472 69.2729 52.747 62.4161 59.6038C55.5593 66.4606 46.2595 70.3127 36.5625 70.3127C26.8655 70.3127 17.5657 66.4606 10.7089 59.6038C3.85211 52.747 0 43.4472 0 33.7502C0 19.3361 8.37071 6.20175 21.3258 0.256828C21.6614 0.102628 22.0241 0.0160465 22.3932 0.00202764C22.7623 -0.0119912 23.1306 0.0468268 23.477 0.175124C23.8233 0.303421 24.141 0.498685 24.412 0.749766C24.6829 1.00085 24.9017 1.30283 25.0559 1.63847C25.2101 1.97411 25.2966 2.33683 25.3107 2.70594C25.3247 3.07504 25.2659 3.44329 25.1376 3.78966C25.0093 4.13602 24.814 4.45373 24.5629 4.72464C24.3118 4.99555 24.0099 5.21435 23.6742 5.36855C12.709 10.4029 5.625 21.5404 5.625 33.7502C5.625 41.9553 8.88448 49.8244 14.6864 55.6263C20.4883 61.4282 28.3574 64.6877 36.5625 64.6877C44.7676 64.6877 52.6367 61.4282 58.4386 55.6263C64.2405 49.8244 67.5 41.9553 67.5 33.7502C67.5 21.5404 60.416 10.4029 49.4508 5.36855C48.7729 5.05712 48.2465 4.48918 47.9874 3.78966C47.7283 3.09013 47.7577 2.31632 48.0691 1.63847C48.3806 0.960613 48.9485 0.434232 49.648 0.175124C50.3476 -0.0839839 51.1214 -0.054594 51.7992 0.256828C64.7543 6.20175 73.125 19.3361 73.125 33.7502Z" fill="#3C8CE2"/>
</svg>
