<svg width="37" height="37" viewBox="0 0 37 37" fill="none" xmlns="http://www.w3.org/2000/svg">
<g id="fluent:weather-partly-cloudy-day-48-regular">
<path id="Vector" d="M20.0378 12.3317C24.9226 12.3317 27.6937 15.5654 28.0969 19.4696H28.2202C31.3637 19.4696 33.912 22.0119 33.912 25.1468C33.912 28.2818 31.3637 30.824 28.2194 30.824H11.8554C8.71272 30.824 6.16435 28.2826 6.16435 25.1468C6.16435 22.0111 8.71272 19.4696 11.8562 19.4696H11.9795C12.385 15.5392 15.153 12.3317 20.0378 12.3317ZM20.0386 14.255C16.7541 14.255 13.8912 16.9128 13.8912 20.5835C13.8912 21.1655 13.3847 21.6226 12.8059 21.6226H11.7113C9.71172 21.6226 8.09066 23.2514 8.09066 25.2609C8.09066 27.2713 9.71172 28.9008 11.7113 28.9008H28.3659C30.3654 28.9008 31.9865 27.2713 31.9865 25.2617C31.9865 23.2521 30.3654 21.6218 28.3659 21.6218H27.2713C26.6916 21.6218 26.186 21.1655 26.186 20.5843C26.186 16.8658 23.3231 14.255 20.0386 14.255ZM6.71087 18.7258C6.8015 18.9451 6.80762 19.1902 6.72803 19.4137C6.64844 19.6373 6.4888 19.8233 6.27997 19.936L6.19133 19.9784L4.40993 20.7192C4.18246 20.816 3.92636 20.8212 3.69517 20.7336C3.46398 20.646 3.27559 20.4724 3.16939 20.2492C3.06319 20.0259 3.04739 19.7703 3.1253 19.5356C3.20321 19.301 3.3688 19.1056 3.58745 18.9902L3.6761 18.9478L5.45749 18.207C5.6924 18.1098 5.95631 18.1098 6.1912 18.2071C6.42609 18.3044 6.61274 18.4909 6.7101 18.7258M16.7309 11.2934L16.6831 11.3088C15.9884 11.534 15.3232 11.8419 14.7021 12.2261C13.8742 11.8758 12.9565 11.7977 12.0813 12.0031C11.2062 12.2085 10.419 12.6867 9.83341 13.3688C9.24783 14.0508 8.89417 14.9012 8.82353 15.7974C8.75288 16.6935 8.9689 17.5889 9.44039 18.3543C8.86016 18.5617 8.3091 18.843 7.80083 19.1914C7.09117 17.9768 6.82493 16.5535 7.04752 15.1645C7.27011 13.7755 7.96775 12.5067 9.02142 11.5747C10.0751 10.6426 11.4195 10.105 12.8253 10.0536C14.2311 10.0021 15.6112 10.4401 16.7302 11.2926M4.29739 11.4314L4.39529 11.4669L6.18285 12.2292C6.66847 12.4343 6.90127 12.9962 6.70316 13.4849C6.51816 13.9405 6.02252 14.1709 5.56233 14.0322L5.4652 13.9975L3.67687 13.2351C3.44326 13.1354 3.25804 12.948 3.16093 12.7133C3.06381 12.4786 3.06251 12.2151 3.15733 11.9795C3.34233 11.5239 3.8372 11.2934 4.29739 11.4322M9.97689 6.67382L10.0193 6.76246L10.7593 8.54C10.8521 8.76786 10.8543 9.02259 10.7653 9.25199C10.6764 9.48138 10.503 9.66805 10.2808 9.77372C10.0586 9.8794 9.80442 9.89607 9.57033 9.82032C9.33624 9.74457 9.13999 9.58215 9.02183 9.36634L8.97943 9.27769L8.23943 7.50015C8.14659 7.2723 8.14443 7.01756 8.2334 6.78817C8.32237 6.55877 8.49572 6.3721 8.71791 6.26643C8.9401 6.16076 9.1943 6.14408 9.42839 6.21983C9.66248 6.29558 9.85873 6.45801 9.97689 6.67382ZM16.9522 6.24215C17.4154 6.43409 17.6521 6.94361 17.5149 7.41382L17.4794 7.51402L16.7147 9.26844C16.6179 9.49641 16.4378 9.67893 16.2112 9.77889C15.9846 9.87885 15.7284 9.88875 15.4948 9.80658C15.2611 9.72441 15.0675 9.55633 14.9533 9.33652C14.8392 9.1167 14.813 8.86167 14.8802 8.62325L14.9156 8.52305L15.6787 6.76863C15.7278 6.65044 15.7996 6.54308 15.8902 6.45266C15.9807 6.36223 16.0882 6.29053 16.2064 6.24164C16.3247 6.19276 16.4514 6.16764 16.5793 6.16772C16.7073 6.16781 16.834 6.1931 16.9522 6.24215Z" fill="black"/>
</g>
</svg>
