<svg width="24" height="24" viewBox="0 0 24 24" fill="none" xmlns="http://www.w3.org/2000/svg">
<g id="material-symbols:rowing" clip-path="url(#clip0_2017_64)">
<path id="Vector" d="M18 24L15 21V19.5L7.9 12.4C7.75 12.4333 7.6 12.4583 7.45 12.475C7.3 12.4917 7.15 12.5 7 12.5V10.3C7.83333 10.3333 8.68333 10.1543 9.55 9.76301C10.4167 9.37167 11.1167 8.88401 11.65 8.30001L13.05 6.75001C13.2667 6.50001 13.521 6.31267 13.813 6.18801C14.105 6.06334 14.4173 6.00067 14.75 6.00001C15.3833 6.00001 15.9167 6.21667 16.35 6.65001C16.7833 7.08334 17 7.61667 17 8.25001V14C17 14.4333 16.9207 14.8293 16.762 15.188C16.6033 15.5467 16.3827 15.8673 16.1 16.15L12.5 12.6V10.3C12.1667 10.5833 11.8083 10.8417 11.425 11.075C11.0417 11.3083 10.6333 11.5167 10.2 11.7L16.5 18H18L21 21L18 24ZM5.5 20.5L4 19L8.5 14.5L11 17H9L5.5 20.5ZM15 5.00001C14.45 5.00001 13.9793 4.80434 13.588 4.41301C13.1967 4.02167 13.0007 3.55067 13 3.00001C12.9993 2.44934 13.1953 1.97867 13.588 1.58801C13.9807 1.19734 14.4513 1.00134 15 1.00001C15.5487 0.998673 16.0197 1.19467 16.413 1.58801C16.8063 1.98134 17.002 2.45201 17 3.00001C16.998 3.54801 16.8023 4.01901 16.413 4.41301C16.0237 4.80701 15.5527 5.00267 15 5.00001Z" fill="black"/>
</g>
<defs>
<clipPath id="clip0_2017_64">
<rect width="24" height="24" fill="white"/>
</clipPath>
</defs>
</svg>
